<svg xmlns="http://www.w3.org/2000/svg" width="620" height="408" viewBox="0 0 620 408" role="img" aria-label="dhananjay@DJay2012 info card"><style>.mono{font-family:ui-monospace, SFMono-Regular, 'SF Mono', Menlo, Consolas, monospace;}
    .ln { opacity: 0; animation: in .42s ease-out forwards; }
    @keyframes in {
      from { opacity: 0; transform: translateX(-10px); }
      to   { opacity: 1; transform: translateX(0); }
    }
    .cur { animation: blink 1.05s steps(1) infinite; }
    @keyframes blink { 0%,49% { opacity:1 } 50%,100% { opacity:0 } }
    </style><rect x="0.5" y="0.5" width="619" height="407" rx="10" fill="#0d1117" stroke="#30363d"/><line x1="0" y1="38" x2="620" y2="38" stroke="#30363d"/><g class="mono" font-size="11"><circle cx="24" cy="19" r="5" fill="#ff5f56"/><circle cx="39" cy="19" r="5" fill="#ffbd2e"/><circle cx="54" cy="19" r="5" fill="#27c93f"/><text x="76" y="23" fill="#8b949e">neofetch</text></g><g class="mono" font-size="12"><g class="ln" style="animation-delay:0.00s"><text x="20" y="72" fill="#39d353">dhananjay@DJay2012</text><text x="171.452" y="72" fill="#8b949e">Dhananjay Pathak</text></g><g class="ln" style="animation-delay:0.07s"><text x="20" y="94" fill="#8b949e">----------------------------------------------------</text></g><g class="ln" style="animation-delay:0.14s"><text x="20" y="112" fill="#58a6ff">Role:</text><text x="124" y="112" fill="#c9d1d9">Python backend developer</text></g><g class="ln" style="animation-delay:0.21s"><text x="20" y="134" fill="#58a6ff">Location:</text><text x="124" y="134" fill="#c9d1d9">Mumbai, India · working from home</text></g><g class="ln" style="animation-delay:0.28s"><text x="20" y="156" fill="#58a6ff">Focus:</text><text x="124" y="156" fill="#c9d1d9">APIs, backend logic, data processing pipelines</text></g><g class="ln" style="animation-delay:0.35s"><text x="20" y="178" fill="#58a6ff">Backend:</text><text x="124" y="178" fill="#c9d1d9">Python · Django · Django REST Framework</text></g><g class="ln" style="animation-delay:0.42s"><text x="20" y="200" fill="#58a6ff">Frontend:</text><text x="124" y="200" fill="#c9d1d9">JavaScript · HTML5 · CSS</text></g><g class="ln" style="animation-delay:0.49s"><text x="20" y="222" fill="#58a6ff">Data:</text><text x="124" y="222" fill="#c9d1d9">MySQL · MongoDB · Neo4j · SQLite</text></g><g class="ln" style="animation-delay:0.56s"><text x="20" y="244" fill="#58a6ff">ML:</text><text x="124" y="244" fill="#c9d1d9">NumPy · pandas · scikit-learn · Keras · Matplotlib</text></g><g class="ln" style="animation-delay:0.63s"><text x="20" y="266" fill="#58a6ff">Ops:</text><text x="124" y="266" fill="#c9d1d9">Nginx · Gunicorn · Jenkins · Git · GitHub Actions</text></g><g class="ln" style="animation-delay:0.70s"><text x="20" y="288" fill="#58a6ff">Projects:</text><text x="124" y="288" fill="#c9d1d9">DJBot (NLP) · Ad sales prediction · UI components</text></g><g class="ln" style="animation-delay:0.77s"><text x="20" y="310" fill="#58a6ff">Badges:</text><text x="124" y="310" fill="#c9d1d9">Pull Shark · Quickdraw · Pair Extraordinaire · YOLO</text></g><g class="ln" style="animation-delay:0.84s"><text x="20" y="332" fill="#58a6ff">Links:</text><text x="124" y="332" fill="#c9d1d9">linkedin.com/in/djay4047</text></g></g><g class="ln" style="animation-delay:0.91s"><rect x="20" y="360" width="15" height="10" rx="2" fill="#161b22"/><rect x="40" y="360" width="15" height="10" rx="2" fill="#0e4429"/><rect x="60" y="360" width="15" height="10" rx="2" fill="#006d32"/><rect x="80" y="360" width="15" height="10" rx="2" fill="#26a641"/><rect x="100" y="360" width="15" height="10" rx="2" fill="#39d353"/><rect x="120" y="360" width="15" height="10" rx="2" fill="#69f0a0"/><rect x="140" y="360" width="15" height="10" rx="2" fill="#58a6ff"/><rect x="160" y="360" width="15" height="10" rx="2" fill="#bc8cff"/><rect x="180" y="360" width="15" height="10" rx="2" fill="#f78166"/></g><g class="ln mono" font-size="12" style="animation-delay:0.98s"><text x="20" y="390" fill="#39d353">$</text><rect class="cur" x="34" y="380" width="8" height="13" fill="#c9d1d9"/></g></svg>
